<svg width="474" height="325" xmlns="http://www.w3.org/2000/svg" xmlns:xlink="http://www.w3.org/1999/xlink" overflow="hidden"><defs><clipPath id="clip0"><rect x="126" y="169" width="474" height="325"/></clipPath><linearGradient x1="217.814" y1="109.049" x2="507.186" y2="544.951" gradientUnits="userSpaceOnUse" spreadMethod="reflect" id="fill1"><stop offset="0" stop-color="#DAE3F3"/><stop offset="0.57" stop-color="#1D345D"/><stop offset="1" stop-color="#BC007D"/></linearGradient><linearGradient x1="192.744" y1="121.701" x2="486.256" y2="527.299" gradientUnits="userSpaceOnUse" spreadMethod="reflect" id="fill2"><stop offset="0" stop-color="#E7E6E6"/><stop offset="0.02" stop-color="#E6E5E6"/><stop offset="0.04" stop-color="#E6E5E6"/><stop offset="0.06" stop-color="#E6E5E6"/><stop offset="0.08" stop-color="#E6E5E6"/><stop offset="0.1" stop-color="#E6E5E6"/><stop offset="0.12" stop-color="#E6E5E6"/><stop offset="0.14" stop-color="#E5E5E6"/><stop offset="0.16" stop-color="#E5E5E6"/><stop offset="0.18" stop-color="#E4E4E6"/><stop offset="0.2" stop-color="#E4E4E6"/><stop offset="0.22" stop-color="#E4E4E6"/><stop offset="0.24" stop-color="#E3E3E6"/><stop offset="0.26" stop-color="#E2E3E6"/><stop offset="0.28" stop-color="#E2E3E6"/><stop offset="0.3" stop-color="#E1E2E6"/><stop offset="0.32" stop-color="#E0E2E6"/><stop offset="0.34" stop-color="#E0E1E6"/><stop offset="0.36" stop-color="#DFE1E6"/><stop offset="0.38" stop-color="#DEE0E6"/><stop offset="0.4" stop-color="#DDE0E6"/><stop offset="0.42" stop-color="#DCDFE6"/><stop offset="0.44" stop-color="#DCDFE6"/><stop offset="0.46" stop-color="#DBDEE6"/><stop offset="0.48" stop-color="#DADEE6"/><stop offset="0.5" stop-color="#D9DDE6"/><stop offset="0.52" stop-color="#D8DCE6"/><stop offset="0.54" stop-color="#D6DCE6"/><stop offset="0.56" stop-color="#D5DBE6"/><stop offset="0.58" stop-color="#D4DAE6"/><stop offset="0.6" stop-color="#D3DAE6"/><stop offset="0.62" stop-color="#D2D9E6"/><stop offset="0.64" stop-color="#D0D8E6"/><stop offset="0.66" stop-color="#CFD7E6"/><stop offset="0.68" stop-color="#CED6E6"/><stop offset="0.7" stop-color="#CCD6E6"/><stop offset="0.72" stop-color="#CBD5E6"/><stop offset="0.74" stop-color="#CAD4E6"/><stop offset="0.76" stop-color="#C8D3E6"/><stop offset="0.78" stop-color="#C6D2E6"/><stop offset="0.8" stop-color="#C5D1E6"/><stop offset="0.82" stop-color="#C3D0E6"/><stop offset="0.84" stop-color="#C2CFE6"/><stop offset="0.86" stop-color="#C0CEE6"/><stop offset="0.88" stop-color="#BECDE6"/><stop offset="0.9" stop-color="#BDCCE6"/><stop offset="0.92" stop-color="#BBCBE6"/><stop offset="0.94" stop-color="#B9CAE6"/><stop offset="0.96" stop-color="#B7C9E6"/><stop offset="0.98" stop-color="#B5C8E6"/><stop offset="1" stop-color="#B4C7E7"/></linearGradient></defs><g clip-path="url(#clip0)" transform="translate(-126 -169)"><path d="M441.91 170C528.686 170 599.035 240.32 599 327.065 598.965 413.993 527.385 484 440.407 484L235.792 484C175.759 484 126.201 435.819 126.001 375.82 125.8 315.69 174.507 266.889 234.614 266.889 251.045 266.889 266.629 270.538 280.59 277.068 286.204 279.695 292.82 277.043 295.02 271.252 317.517 212.061 374.792 170 441.91 170Z" fill="url(#fill1)" fill-rule="evenodd"/><path d="M175.527 409.689C175.326 349.447 224.042 300.554 284.162 300.554 300.597 300.554 316.184 304.21 330.148 310.752 335.763 313.384 342.38 310.727 344.581 304.926 367.082 245.624 424.369 203.485 491.502 203.485 513.327 203.485 534.112 207.943 553 215.994 524.572 187.574 485.323 170 441.974 170 374.842 170 317.555 212.139 295.054 271.441 292.853 277.242 286.236 279.899 280.621 277.268 266.656 270.725 251.07 267.068 234.635 267.068 174.516 267.069 125.799 315.962 126.001 376.204 126.161 424.201 157.798 464.647 201.111 479 185.246 460.247 175.616 436.112 175.527 409.689Z" fill="url(#fill2)" fill-rule="evenodd"/><text fill="#FFFFFF" font-family="Century Gothic,Century Gothic_MSFontService,sans-serif" font-weight="700" font-size="24" transform="translate(411.554 474)">CC</text></g></svg>